<svg width="57" height="47" viewBox="0 0 47 54" fill="none" xmlns="http://www.w3.org/2000/svg">
<path d="M36.9807 23.8747V10.9863C36.9808 10.5324 36.8614 10.0864 36.6344 9.69331C36.4075 9.30018 36.0811 8.97372 35.688 8.74676L24.5262 2.30258C24.1331 2.07566 23.6872 1.9562 23.2333 1.9562C22.7794 1.9562 22.3335 2.07566 21.9403 2.30258L10.7786 8.74676C10.3855 8.97375 10.0591 9.30021 9.83218 9.69334C9.60525 10.0865 9.4858 10.5324 9.48584 10.9863V23.8747C9.48576 24.3286 9.60519 24.7746 9.83212 25.1677C10.059 25.5608 10.3855 25.8873 10.7786 26.1142L21.94 32.5584C22.3331 32.7855 22.7791 32.905 23.2331 32.905C23.6871 32.905 24.1331 32.7855 24.5262 32.5584L35.6876 26.1142C36.0808 25.8873 36.4073 25.5609 36.6343 25.1677C36.8613 24.7746 36.9808 24.3286 36.9807 23.8747Z" fill="white"/>
<path d="M34.3644 22.3641V12.4967C34.3643 12.0428 34.2449 11.5969 34.018 11.2039C33.791 10.8108 33.4647 10.4844 33.0716 10.2575L24.5261 5.32375C24.133 5.09675 23.6871 4.97725 23.2332 4.97725C22.7792 4.97725 22.3333 5.09675 21.9402 5.32375L13.3947 10.2575C13.0016 10.4844 12.6751 10.8108 12.4482 11.2038C12.2212 11.5969 12.1016 12.0428 12.1016 12.4967V22.3641C12.1016 22.8181 12.2211 23.264 12.4481 23.6572C12.675 24.0503 13.0015 24.3767 13.3947 24.6037L21.9402 29.5374C22.3333 29.7643 22.7792 29.8838 23.2332 29.8838C23.6871 29.8838 24.133 29.7643 24.5261 29.5374L33.0716 24.6037C33.4648 24.3767 33.7913 24.0503 34.0183 23.6572C34.2452 23.264 34.3648 22.8181 34.3648 22.3641" fill="#000004"/>
<path fill-rule="evenodd" clip-rule="evenodd" d="M21.94 2.3024L10.7786 8.74657C10.3855 8.97357 10.0591 9.30003 9.83218 9.69316C9.60525 10.0863 9.4858 10.5322 9.48584 10.9861V23.8745C9.48576 24.3284 9.60519 24.7744 9.83212 25.1675C10.059 25.5606 10.3855 25.8871 10.7786 26.1141L21.94 32.5582C22.3331 32.7853 22.7791 32.9048 23.2331 32.9048C23.6871 32.9048 24.1331 32.7853 24.5262 32.5582L35.6876 26.1141C36.0808 25.8871 36.4073 25.5607 36.6343 25.1676C36.8613 24.7744 36.9808 24.3285 36.9807 23.8745V10.9861C36.9808 10.5322 36.8614 10.0863 36.6344 9.69313C36.4075 9.3 36.0811 8.97354 35.688 8.74657L24.5266 2.3024C24.1334 2.07541 23.6875 1.9559 23.2335 1.9559C22.7795 1.9559 22.3335 2.07541 21.9403 2.3024H21.94ZM22.039 19.2852L13.2282 24.4992C12.881 24.2618 12.5969 23.9433 12.4006 23.5713C12.2043 23.1993 12.1017 22.785 12.1017 22.3644V12.4966C12.1017 12.0427 12.2213 11.5968 12.4483 11.2038C12.6753 10.8107 13.0017 10.4843 13.3948 10.2574L21.9403 5.32368C22.3334 5.09668 22.7794 4.97718 23.2333 4.97718C23.6872 4.97718 24.1331 5.09668 24.5262 5.32368L33.0717 10.2574C33.4648 10.4843 33.7913 10.8107 34.0183 11.2038C34.2453 11.5968 34.3648 12.0427 34.3649 12.4966V22.364C34.3649 22.7724 34.2682 23.1751 34.0826 23.5389C33.8971 23.9027 33.6281 24.2175 33.2975 24.4573L24.5566 19.2856C23.8616 18.874 22.7343 18.874 22.039 19.2856" fill="#F5C423"/>
<path fill-rule="evenodd" clip-rule="evenodd" d="M21.8999 10.7888L13.0902 15.7225C12.68 15.9509 12.3386 16.2852 12.1016 16.6905V20.1487C12.3386 19.7434 12.68 19.4092 13.0902 19.1807L21.8999 14.247C22.3075 14.0198 22.7663 13.9005 23.233 13.9005C23.6996 13.9005 24.1585 14.0198 24.566 14.247L33.3761 19.1807C33.7863 19.4092 34.1277 19.7434 34.3648 20.1487V16.6905C34.1277 16.2852 33.7863 15.9509 33.3761 15.7225L24.566 10.7888C24.1585 10.5616 23.6996 10.4423 23.233 10.4423C22.7663 10.4423 22.3075 10.5616 21.8999 10.7888Z" fill="#F5C423"/>
<path fill-rule="evenodd" clip-rule="evenodd" d="M21.8999 14.247L13.0902 19.1807C12.68 19.4091 12.3386 19.7434 12.1016 20.1487V22.364C12.1016 22.7846 12.2042 23.1989 12.4005 23.5709C12.5968 23.9429 12.8808 24.2614 13.2281 24.4988L22.0389 19.2852C22.7342 18.8743 23.8611 18.8743 24.5564 19.2852L33.297 24.4569C33.6274 24.2172 33.8964 23.9025 34.082 23.5388C34.2675 23.1751 34.3643 22.7727 34.3644 22.3644V20.1487C34.1274 19.7434 33.7862 19.4092 33.3761 19.1807L24.566 14.247C24.1585 14.0198 23.6996 13.9005 23.233 13.9005C22.7663 13.9005 22.3075 14.0198 21.8999 14.247Z" fill="#000004"/>
<path fill-rule="evenodd" clip-rule="evenodd" d="M16.8091 1.08629C15.9406 0.550685 15.2952 0.270788 14.2689 0.0239096C12.8211 -0.245237 11.8017 1.84728 13.281 2.01161C13.6343 2.07726 14.497 2.31991 14.7036 2.40131C15.2257 2.60672 15.8351 2.97377 16.325 3.41723C16.6361 3.69502 16.9118 4.01006 17.1459 4.35522L19.0141 3.27633C18.4398 2.38596 17.6934 1.66145 16.8091 1.08629ZM29.6572 1.08629C28.7729 1.66145 28.0265 2.38595 27.4522 3.27671L29.3204 4.35522C29.5546 4.01008 29.8303 3.69504 30.1413 3.41723C30.6312 2.97377 31.2406 2.60672 31.7627 2.40131C31.9693 2.31991 32.832 2.07726 33.1853 2.01161C34.6646 1.84728 33.6452 -0.245237 32.1974 0.0239096C31.1711 0.270788 30.5257 0.550685 29.6572 1.08629Z" fill="#F5C423"/>
<path d="M0.2757 52.2683V49.7588H1.84903V50.0848H0.654328V50.8494H1.76693V51.1741H0.654328V51.9424H1.86373V52.2683H0.2757ZM3.39635 50.8543V51.1729H2.28374V50.8543H3.39635ZM5.96038 50.5749H5.57808C5.56338 50.4932 5.53601 50.4213 5.49598 50.3592C5.45596 50.2972 5.40694 50.2445 5.34894 50.2012C5.29094 50.1579 5.226 50.1252 5.15412 50.1031C5.08305 50.0811 5.00748 50.0701 4.92743 50.0701C4.78284 50.0701 4.65336 50.1064 4.539 50.1791C4.42545 50.2518 4.33559 50.3584 4.26942 50.4989C4.20407 50.6394 4.1714 50.811 4.1714 51.0136C4.1714 51.2178 4.20407 51.3902 4.26942 51.5307C4.33559 51.6712 4.42586 51.7774 4.54022 51.8492C4.65459 51.9211 4.78325 51.9571 4.9262 51.9571C5.00544 51.9571 5.0806 51.9465 5.15166 51.9252C5.22355 51.9032 5.28849 51.8709 5.34649 51.8284C5.40449 51.7859 5.4535 51.7341 5.49353 51.6728C5.53438 51.6107 5.56256 51.5396 5.57808 51.4596L5.96038 51.4608C5.93996 51.5842 5.90034 51.6977 5.84153 51.8015C5.78353 51.9044 5.70878 51.9934 5.61729 52.0686C5.52662 52.1429 5.42287 52.2005 5.30606 52.2414C5.18924 52.2822 5.06181 52.3026 4.92375 52.3026C4.70646 52.3026 4.51286 52.2512 4.34294 52.1482C4.17303 52.0445 4.03906 51.8962 3.94104 51.7034C3.84383 51.5106 3.79522 51.2807 3.79522 51.0136C3.79522 50.7456 3.84423 50.5157 3.94226 50.3237C4.04029 50.1309 4.17426 49.9831 4.34417 49.8801C4.51408 49.7764 4.70728 49.7245 4.92375 49.7245C5.05691 49.7245 5.18107 49.7437 5.29625 49.7821C5.41225 49.8197 5.51641 49.8752 5.60871 49.9488C5.70102 50.0215 5.7774 50.1105 5.83785 50.2159C5.8983 50.3204 5.93915 50.4401 5.96038 50.5749ZM8.55536 51.0136C8.55536 51.2815 8.50635 51.5119 8.40832 51.7047C8.3103 51.8966 8.17592 52.0445 8.00519 52.1482C7.83527 52.2512 7.64208 52.3026 7.42561 52.3026C7.20831 52.3026 7.0143 52.2512 6.84357 52.1482C6.67366 52.0445 6.53969 51.8962 6.44166 51.7034C6.34364 51.5106 6.29462 51.2807 6.29462 51.0136C6.29462 50.7456 6.34364 50.5157 6.44166 50.3237C6.53969 50.1309 6.67366 49.9831 6.84357 49.8801C7.0143 49.7764 7.20831 49.7245 7.42561 49.7245C7.64208 49.7245 7.83527 49.7764 8.00519 49.8801C8.17592 49.9831 8.3103 50.1309 8.40832 50.3237C8.50635 50.5157 8.55536 50.7456 8.55536 51.0136ZM8.18041 51.0136C8.18041 50.8093 8.14733 50.6374 8.08116 50.4977C8.01581 50.3572 7.92595 50.251 7.81158 50.1791C7.69804 50.1064 7.56938 50.0701 7.42561 50.0701C7.28102 50.0701 7.15195 50.1064 7.0384 50.1791C6.92485 50.251 6.83499 50.3572 6.76883 50.4977C6.70348 50.6374 6.6708 50.8093 6.6708 51.0136C6.6708 51.2178 6.70348 51.3902 6.76883 51.5307C6.83499 51.6703 6.92485 51.7765 7.0384 51.8492C7.15195 51.9211 7.28102 51.9571 7.42561 51.9571C7.56938 51.9571 7.69804 51.9211 7.81158 51.8492C7.92595 51.7765 8.01581 51.6703 8.08116 51.5307C8.14733 51.3902 8.18041 51.2178 8.18041 51.0136ZM8.98947 49.7588H9.44896L10.2479 51.7096H10.2773L11.0762 49.7588H11.5357V52.2683H11.1755V50.4524H11.1522L10.4121 52.2646H10.1131L9.37299 50.4511H9.34971V52.2683H8.98947V49.7588ZM12.0482 49.7588H12.5077L13.3066 51.7096H13.3361L14.135 49.7588H14.5945V52.2683H14.2342V50.4524H14.2109L13.4708 52.2646H13.1719L12.4318 50.4511H12.4085V52.2683H12.0482V49.7588ZM15.107 52.2683V49.7588H16.6803V50.0848H15.4856V50.8494H16.5982V51.1741H15.4856V51.9424H16.695V52.2683H15.107ZM17.1481 52.2683V49.7588H18.0426C18.237 49.7588 18.3984 49.7923 18.5266 49.8593C18.6557 49.9263 18.7521 50.019 18.8158 50.1375C18.8795 50.2551 18.9114 50.3911 18.9114 50.5455C18.9114 50.6991 18.8791 50.8343 18.8146 50.9511C18.7509 51.0671 18.6545 51.1573 18.5254 51.2219C18.3971 51.2864 18.2358 51.3187 18.0414 51.3187H17.3638V50.9927H18.0071C18.1296 50.9927 18.2293 50.9752 18.3061 50.94C18.3837 50.9049 18.4404 50.8539 18.4764 50.7869C18.5123 50.7199 18.5303 50.6394 18.5303 50.5455C18.5303 50.4507 18.5119 50.3686 18.4752 50.2992C18.4392 50.2298 18.3824 50.1767 18.3048 50.1399C18.2281 50.1023 18.1272 50.0835 18.0022 50.0835H17.5268V52.2683H17.1481ZM18.3869 51.1361L19.007 52.2683H18.5756L17.9679 51.1361H18.3869ZM21.4184 50.5749H21.0361C21.0214 50.4932 20.9941 50.4213 20.954 50.3592C20.914 50.2972 20.865 50.2445 20.807 50.2012C20.749 50.1579 20.6841 50.1252 20.6122 50.1031C20.5411 50.0811 20.4655 50.0701 20.3855 50.0701C20.2409 50.0701 20.1114 50.1064 19.9971 50.1791C19.8835 50.2518 19.7936 50.3584 19.7275 50.4989C19.6621 50.6394 19.6295 50.811 19.6295 51.0136C19.6295 51.2178 19.6621 51.3902 19.7275 51.5307C19.7936 51.6712 19.8839 51.7774 19.9983 51.8492C20.1126 51.9211 20.2413 51.9571 20.3843 51.9571C20.4635 51.9571 20.5387 51.9465 20.6097 51.9252C20.6816 51.9032 20.7465 51.8709 20.8045 51.8284C20.8625 51.7859 20.9116 51.7341 20.9516 51.6728C20.9924 51.6107 21.0206 51.5396 21.0361 51.4596L21.4184 51.4608C21.398 51.5842 21.3584 51.6977 21.2996 51.8015C21.2416 51.9044 21.1668 51.9934 21.0753 52.0686C20.9847 52.1429 20.8809 52.2005 20.7641 52.2414C20.6473 52.2822 20.5199 52.3026 20.3818 52.3026C20.1645 52.3026 19.9709 52.2512 19.801 52.1482C19.6311 52.0445 19.4971 51.8962 19.3991 51.7034C19.3019 51.5106 19.2533 51.2807 19.2533 51.0136C19.2533 50.7456 19.3023 50.5157 19.4003 50.3237C19.4983 50.1309 19.6323 49.9831 19.8022 49.8801C19.9721 49.7764 20.1653 49.7245 20.3818 49.7245C20.515 49.7245 20.6391 49.7437 20.7543 49.7821C20.8703 49.8197 20.9745 49.8752 21.0668 49.9488C21.1591 50.0215 21.2355 50.1105 21.2959 50.2159C21.3564 50.3204 21.3972 50.4401 21.4184 50.5749ZM21.8336 52.2683V49.7588H23.4069V50.0848H22.2122V50.8494H23.3248V51.1741H22.2122V51.9424H23.4216V52.2683H21.8336ZM24.7499 52.2683V49.7588H25.6444C25.8396 49.7588 26.0014 49.7944 26.1296 49.8654C26.2579 49.9365 26.3539 50.0337 26.4176 50.1571C26.4813 50.2796 26.5132 50.4176 26.5132 50.5712C26.5132 50.7256 26.4809 50.8645 26.4164 50.9878C26.3526 51.1104 26.2562 51.2076 26.1272 51.2795C25.9989 51.3505 25.8376 51.3861 25.6432 51.3861H25.0281V51.065H25.6089C25.7322 51.065 25.8323 51.0438 25.9091 51.0013C25.9859 50.958 26.0422 50.8992 26.0782 50.8249C26.1141 50.7505 26.1321 50.666 26.1321 50.5712C26.1321 50.4765 26.1141 50.3923 26.0782 50.3188C26.0422 50.2453 25.9854 50.1877 25.9078 50.146C25.8311 50.1044 25.7298 50.0835 25.604 50.0835H25.1285V52.2683H24.7499ZM26.9191 52.2683V49.7588H27.2977V51.9424H28.4348V52.2683H26.9191ZM29.1688 52.2683H28.7669L29.67 49.7588H30.1074L31.0105 52.2683H30.6086L29.8991 50.2147H29.8795L29.1688 52.2683ZM29.2362 51.2856H30.54V51.6042H29.2362V51.2856ZM30.9146 50.0848V49.7588H32.8568V50.0848H32.0738V52.2683H31.6964V50.0848H30.9146ZM33.248 52.2683V49.7588H34.8042V50.0848H33.6266V50.8494H34.6927V51.1741H33.6266V52.2683H33.248ZM37.4117 51.0136C37.4117 51.2815 37.3627 51.5119 37.2647 51.7047C37.1667 51.8966 37.0323 52.0445 36.8615 52.1482C36.6916 52.2512 36.4984 52.3026 36.282 52.3026C36.0647 52.3026 35.8707 52.2512 35.6999 52.1482C35.53 52.0445 35.396 51.8962 35.298 51.7034C35.2 51.5106 35.151 51.2807 35.151 51.0136C35.151 50.7456 35.2 50.5157 35.298 50.3237C35.396 50.1309 35.53 49.9831 35.6999 49.8801C35.8707 49.7764 36.0647 49.7245 36.282 49.7245C36.4984 49.7245 36.6916 49.7764 36.8615 49.8801C37.0323 49.9831 37.1667 50.1309 37.2647 50.3237C37.3627 50.5157 37.4117 50.7456 37.4117 51.0136ZM37.0368 51.0136C37.0368 50.8093 37.0037 50.6374 36.9375 50.4977C36.8722 50.3572 36.7823 50.251 36.6679 50.1791C36.5544 50.1064 36.4257 50.0701 36.282 50.0701C36.1374 50.0701 36.0083 50.1064 35.8948 50.1791C35.7812 50.251 35.6914 50.3572 35.6252 50.4977C35.5598 50.6374 35.5272 50.8093 35.5272 51.0136C35.5272 51.2178 35.5598 51.3902 35.6252 51.5307C35.6914 51.6703 35.7812 51.7765 35.8948 51.8492C36.0083 51.9211 36.1374 51.9571 36.282 51.9571C36.4257 51.9571 36.5544 51.9211 36.6679 51.8492C36.7823 51.7765 36.8722 51.6703 36.9375 51.5307C37.0037 51.3902 37.0368 51.2178 37.0368 51.0136ZM37.8458 52.2683V49.7588H38.7403C38.9347 49.7588 39.0961 49.7923 39.2243 49.8593C39.3534 49.9263 39.4498 50.019 39.5135 50.1375C39.5772 50.2551 39.6091 50.3911 39.6091 50.5455C39.6091 50.6991 39.5768 50.8343 39.5123 50.9511C39.4486 51.0671 39.3522 51.1573 39.2231 51.2219C39.0948 51.2864 38.9335 51.3187 38.7391 51.3187H38.0615V50.9927H38.7048C38.8273 50.9927 38.927 50.9752 39.0038 50.94C39.0814 50.9049 39.1381 50.8539 39.1741 50.7869C39.21 50.7199 39.228 50.6394 39.228 50.5455C39.228 50.4507 39.2096 50.3686 39.1729 50.2992C39.1369 50.2298 39.0801 50.1767 39.0025 50.1399C38.9257 50.1023 38.8249 50.0835 38.6999 50.0835H38.2244V52.2683H37.8458ZM39.0846 51.1361L39.7047 52.2683H39.2733L38.6656 51.1361H39.0846ZM40.0318 49.7588H40.4913L41.2903 51.7096H41.3197L42.1186 49.7588H42.5781V52.2683H42.2178V50.4524H42.1946L41.4545 52.2646H41.1555L40.4154 50.4511H40.3921V52.2683H40.0318V49.7588Z" fill="white"/>
<path d="M9.0112 46.7314V38.7968C9.0112 38.4424 9.11486 38.194 9.3222 38.0515C9.52953 37.9087 9.80214 37.8377 10.1392 37.8377C10.39 37.8377 10.6192 37.9068 10.7996 38.0008C11.3541 38.2919 11.1759 38.7027 11.1759 39.395V46.7314H9.0112ZM2.2568 44.9161C2.2998 44.925 2.44493 44.9399 2.69065 44.9618C2.93715 44.9833 3.3065 44.9941 3.79949 44.9941C4.1366 44.9941 4.41304 44.9726 4.62882 44.9292C4.84498 44.8862 5.01815 44.8255 5.14793 44.7476C5.27732 44.67 5.36831 44.5748 5.42014 44.4627C5.47197 44.3502 5.49769 44.2208 5.49769 44.0737C5.49769 43.9612 5.48043 43.8534 5.44587 43.7493C5.41131 43.6456 5.34872 43.5527 5.25773 43.471C5.16712 43.3888 5.04657 43.3239 4.89491 43.2763C4.74363 43.2287 4.54705 43.2049 4.30516 43.2049H2.2568V44.9161ZM4.13661 41.3251C4.35239 41.3251 4.53207 41.3013 4.67452 41.2537C4.81735 41.206 4.93176 41.1415 5.01815 41.0594C5.10454 40.9772 5.16521 40.8866 5.19938 40.7868C5.23393 40.6877 5.25159 40.586 5.25159 40.4823C5.25159 40.3702 5.232 40.2577 5.19322 40.1452C5.15406 40.0327 5.0765 39.9336 4.95978 39.8473C4.84306 39.7605 4.67874 39.6914 4.46718 39.6399C4.25524 39.5877 3.98072 39.562 3.64399 39.562C3.28961 39.562 2.98054 39.5727 2.71677 39.5942C2.45338 39.6157 2.2998 39.6311 2.2568 39.6395V41.3251H4.13661ZM0.143555 38.9914C0.143555 38.8014 0.169278 38.6371 0.221111 38.4988C0.272943 38.3606 0.340129 38.2458 0.422294 38.1552C0.504075 38.0646 0.599295 37.9951 0.707185 37.9479C0.815458 37.9003 0.925648 37.8676 1.03776 37.8503C1.12415 37.8334 1.2259 37.8158 1.34262 37.7989C1.45934 37.7812 1.60639 37.7663 1.78339 37.7532C1.96039 37.7402 2.17655 37.7298 2.43149 37.721C2.68643 37.7121 2.9959 37.7079 3.35873 37.7079C4.16233 37.7079 4.82579 37.7728 5.34872 37.9026C5.87166 38.0319 6.28632 38.2113 6.5931 38.4405C6.90025 38.6697 7.11643 38.9396 7.24159 39.2506C7.36676 39.5616 7.42972 39.8991 7.42972 40.2619C7.42972 40.5299 7.39709 40.7676 7.3322 40.9749C7.27375 41.1682 7.19105 41.3533 7.08608 41.5259C6.91514 41.807 6.67666 42.041 6.3923 42.2066C6.53052 42.2584 6.67756 42.3364 6.83306 42.4401C6.98856 42.5437 7.1314 42.6758 7.26117 42.8355C7.39056 42.9952 7.49883 43.1899 7.58522 43.4191C7.67161 43.6479 7.71461 43.9136 7.71461 44.2162C7.71461 44.614 7.65433 44.9745 7.53339 45.2989C7.41244 45.623 7.19168 45.9017 6.87185 46.1352C6.5524 46.3682 6.11163 46.5475 5.54953 46.6727C4.98782 46.7982 4.2706 46.8608 3.3975 46.8608C2.99121 46.8613 2.58494 46.8549 2.17886 46.8416C1.79875 46.8286 1.46164 46.8155 1.16754 46.8028C0.87382 46.7898 0.635775 46.7744 0.454551 46.7572C0.351109 46.7461 0.247413 46.7375 0.143555 46.7314V38.9914ZM22.3257 38.9914C22.3257 38.8014 22.3518 38.6371 22.4037 38.4988C22.4555 38.3606 22.5227 38.2458 22.6049 38.1552C22.6866 38.0646 22.7819 37.9951 22.8898 37.9479C22.998 37.9003 23.1082 37.8676 23.2207 37.8503C23.3071 37.8334 23.4088 37.8158 23.5252 37.7989C23.6419 37.7812 23.7886 37.7663 23.966 37.7532C24.1433 37.7402 24.3591 37.7298 24.6141 37.721C24.869 37.7121 25.1785 37.7079 25.5413 37.7079C26.3449 37.7079 27.0084 37.7728 27.5313 37.9026C28.0542 38.0319 28.4693 38.2113 28.7757 38.4405C29.0828 38.6697 29.299 38.9396 29.4242 39.2506C29.5493 39.5616 29.6123 39.8991 29.6123 40.2619C29.6123 40.5299 29.5797 40.7676 29.5148 40.9749C29.4563 41.1682 29.3736 41.3533 29.2687 41.5259C29.0975 41.8067 28.8592 42.0407 28.5753 42.2066C28.7135 42.2584 28.8601 42.3364 29.0156 42.4401C29.1711 42.5437 29.314 42.6758 29.4437 42.8355C29.5731 42.9952 29.6814 43.1899 29.7678 43.4191C29.8542 43.6479 29.8972 43.9136 29.8972 44.2162C29.8972 44.614 29.8369 44.9745 29.716 45.2989C29.595 45.623 29.3742 45.9017 29.0548 46.1352C28.735 46.3682 28.2942 46.5475 27.7325 46.6727C27.1704 46.7982 26.4532 46.8608 25.5801 46.8608C25.1478 46.8608 24.7419 46.8547 24.3614 46.8416C23.9813 46.8286 23.6442 46.8155 23.3501 46.8028C23.0564 46.7898 22.8187 46.7744 22.6371 46.7572C22.4555 46.7399 22.3518 46.7314 22.3261 46.7314L22.3257 38.9914ZM26.3188 41.3251C26.535 41.3251 26.7143 41.3013 26.8571 41.2537C26.9999 41.206 27.1143 41.1415 27.2007 41.0594C27.2871 40.9772 27.3478 40.8866 27.3823 40.7868C27.4169 40.6877 27.4342 40.586 27.4342 40.4823C27.4342 40.3702 27.415 40.2577 27.3758 40.1452C27.337 40.0327 27.2591 39.9336 27.1424 39.8473C27.0256 39.7605 26.8613 39.6914 26.6498 39.6399C26.4378 39.5877 26.1637 39.562 25.8266 39.562C25.4722 39.562 25.1631 39.5727 24.8993 39.5942C24.636 39.6157 24.4824 39.6311 24.4394 39.6395V41.3251H26.3188ZM24.4394 44.9161C24.4824 44.925 24.6271 44.9399 24.8732 44.9618C25.1197 44.9833 25.4895 44.9941 25.9821 44.9941C26.3192 44.9941 26.5956 44.9726 26.8118 44.9292C27.0279 44.8862 27.2007 44.8255 27.3301 44.7476C27.4599 44.67 27.5509 44.5748 27.6027 44.4627C27.6545 44.3502 27.6803 44.2208 27.6803 44.0737C27.6803 43.9612 27.663 43.8534 27.6284 43.7493C27.5939 43.6456 27.5313 43.5527 27.4403 43.471C27.3497 43.3888 27.2291 43.3239 27.0775 43.2763C26.9262 43.2287 26.7296 43.2049 26.4877 43.2049H24.4394V44.9161ZM31.1938 39.0694C31.1938 38.2477 31.6215 37.8377 32.4773 37.8377H36.9111C37.3089 37.8377 37.5919 37.9221 37.7604 38.0903C37.9294 38.2592 38.0135 38.5031 38.0135 38.8229C38.0135 39.5055 37.9044 39.8799 37.1761 39.8599H33.3589V41.2471H36.743C37.1404 41.2471 37.4233 41.3316 37.5919 41.5001C37.7604 41.6687 37.8449 41.9129 37.8449 42.2323C37.8449 42.4884 37.8 42.6977 37.7055 42.8593C37.5466 43.1319 37.2467 43.2698 36.7814 43.2698H33.3589V44.7088H37.9486V46.7314H31.1934L31.1938 39.0694ZM39.5043 39.0694C39.5043 38.2477 39.932 37.8377 40.7879 37.8377H45.2217C45.6191 37.8377 45.9024 37.9221 46.071 38.0903C46.2395 38.2592 46.3236 38.5031 46.3236 38.8229C46.3236 39.0563 46.3013 39.2748 46.2199 39.4645C46.0829 39.7843 45.9255 39.8169 45.4509 39.8599H41.669V41.2471H45.0531C45.4505 41.2471 45.7339 41.3316 45.9024 41.5001C46.0706 41.6687 46.1608 41.9129 46.1551 42.2323C46.1397 43.107 45.8133 43.2698 45.0293 43.2698H41.6694V44.7088H46.2587V46.7314H39.5043V39.0694ZM17.306 46.9272C17.1375 46.9272 16.972 46.9203 16.8103 46.9069C16.6491 46.8935 16.4901 46.8731 16.335 46.8458C16.1807 46.819 16.0286 46.7852 15.8796 46.7445C15.587 46.6642 15.3031 46.5553 15.0319 46.4193C14.7615 46.2828 14.5057 46.119 14.2686 45.9305C14.148 45.8349 14.0317 45.7332 13.92 45.626C13.8059 45.5147 13.6992 45.4007 13.6001 45.2836C13.205 44.8209 12.9133 44.279 12.7447 43.6944C12.7017 43.5464 12.6663 43.3964 12.6384 43.2448C12.6096 43.0901 12.5881 42.933 12.5739 42.7745C12.5455 42.4466 12.5455 42.1168 12.5739 41.7889C12.5881 41.6288 12.6096 41.4706 12.6384 41.3147C12.6939 41.0129 12.7796 40.7175 12.8941 40.4328C13.0084 40.1544 13.1519 39.8888 13.3222 39.6407C13.4078 39.5167 13.5003 39.3961 13.6005 39.2798C13.7 39.1634 13.8063 39.0513 13.92 38.9427C14.3608 38.5141 14.8857 38.1817 15.4615 37.9663C15.6059 37.9118 15.7537 37.8645 15.9046 37.8242C16.0555 37.7839 16.2106 37.7497 16.3703 37.7229C16.5297 37.696 16.6925 37.6753 16.8579 37.6618C17.1524 37.6381 17.4481 37.6349 17.7429 37.6522C18.0986 37.671 18.4516 37.7237 18.7973 37.8096C19.0163 37.8649 19.2312 37.9355 19.4404 38.0208C19.7222 38.1368 19.8819 38.237 19.9802 38.3514C20.0823 38.4704 20.115 38.5964 20.143 38.7645C20.1952 39.0755 20.209 39.4771 20.1545 39.7793C20.1303 39.9152 20.0915 40.0331 20.0363 40.1172C19.9718 40.2143 19.8857 40.2688 19.7748 40.2611C19.723 40.2577 19.6673 40.2396 19.6066 40.2047C19.4605 40.1192 19.3087 40.0436 19.1524 39.9786C19.0096 39.9198 18.8633 39.8711 18.6898 39.8192C18.301 39.7014 17.8969 39.6417 17.4907 39.6418C17.2807 39.6418 17.0818 39.6572 16.8936 39.6879C16.7115 39.7174 16.5325 39.7641 16.3592 39.8273C16.0277 39.9482 15.7249 40.1366 15.47 40.3806C15.2816 40.557 15.1233 40.7629 15.0012 40.9903C14.92 41.1438 14.8556 41.3056 14.8092 41.4729C14.7847 41.5604 14.7646 41.6491 14.7489 41.7386C14.7326 41.8323 14.7205 41.9267 14.7128 42.0215C14.6889 42.3134 14.7005 42.6071 14.7474 42.8962C14.7768 43.0704 14.8237 43.2413 14.8875 43.4061C15.0099 43.7209 15.2004 44.0048 15.4454 44.2373C15.5678 44.3538 15.7008 44.4586 15.8428 44.5502C16.0519 44.6845 16.2805 44.7859 16.5205 44.8509C16.6877 44.8969 16.8589 44.9268 17.0319 44.9403C17.1213 44.948 17.2127 44.9518 17.306 44.9518C17.397 44.9518 17.4845 44.9488 17.5682 44.943C17.7272 44.9342 17.8852 44.9121 18.0405 44.877C18.1131 44.8605 18.1837 44.8409 18.2517 44.819C18.3743 44.7789 18.4929 44.7272 18.6057 44.6646C18.6985 44.6119 18.7861 44.5505 18.8675 44.4815V42.2669C18.8656 41.6434 18.8648 41.4257 19.5129 41.4257H20.1265C20.9785 41.4257 20.9788 41.5347 20.9781 42.3229C20.9823 43.3016 20.9788 44.2818 20.9781 45.2609C20.9781 45.4049 20.9754 45.4583 20.8564 45.5846C20.8084 45.636 20.8333 45.6111 20.7807 45.6602C20.6739 45.7609 20.5611 45.855 20.4429 45.942C20.3192 46.0334 20.1906 46.118 20.0578 46.1954C19.9188 46.2769 19.7759 46.3514 19.6297 46.4189C19.4719 46.4921 19.3108 46.558 19.147 46.6166C18.9802 46.6758 18.8104 46.7264 18.6383 46.7683C18.379 46.8322 18.1152 46.8767 17.8493 46.9015C17.6687 46.9186 17.4874 46.9272 17.306 46.9272Z" fill="#F5C423"/>
</svg>
