<svg width="33" height="32" viewBox="0 0 33 32" fill="none" xmlns="http://www.w3.org/2000/svg">
<path d="M27.7875 4.98137C24.821 2.02515 20.8656 0.382812 16.6905 0.382812C8.01075 0.382812 0.97901 7.39013 0.97901 16.0398C0.97901 18.777 1.74811 21.5143 3.06656 23.8135L0.869141 31.9158L9.21933 29.726C11.5266 30.9304 14.0536 31.5873 16.6905 31.5873C25.3703 31.5873 32.4021 24.58 32.4021 15.9303C32.2922 11.8792 30.754 7.93758 27.7875 4.98137ZM24.2716 21.6238C23.942 22.4997 22.4038 23.3756 21.6347 23.4851C20.9755 23.5946 20.0965 23.5946 19.2176 23.3756C18.6682 23.1566 17.8991 22.9376 17.0202 22.4997C13.0648 20.8573 10.5378 16.9157 10.318 16.5872C10.0983 16.3683 8.66998 14.5069 8.66998 12.5361C8.66998 10.5653 9.65881 9.68941 9.98843 9.25145C10.318 8.8135 10.7575 8.8135 11.0871 8.8135C11.3069 8.8135 11.6365 8.8135 11.8562 8.8135C12.076 8.8135 12.4056 8.70401 12.7352 9.47043C13.0648 10.2369 13.8339 12.2077 13.9438 12.3172C14.0536 12.5361 14.0536 12.7551 13.9438 12.9741C13.8339 13.1931 13.724 13.4121 13.5043 13.631C13.2845 13.85 13.0648 14.1785 12.9549 14.288C12.7352 14.5069 12.5155 14.7259 12.7352 15.0544C12.9549 15.4924 13.724 16.6967 14.9326 17.7916C16.4708 19.1055 17.6794 19.5435 18.1189 19.7624C18.5584 19.9814 18.7781 19.8719 18.9978 19.6529C19.2176 19.434 19.9867 18.5581 20.2064 18.1201C20.4262 17.6821 20.7558 17.7916 21.0854 17.9011C21.415 18.0106 23.3927 18.996 23.7223 19.215C24.1618 19.434 24.3815 19.5435 24.4914 19.6529C24.6013 19.9814 24.6013 20.7478 24.2716 21.6238Z" fill="black"/>
</svg>
